<?xml version="1.0" encoding="iso-8859-1"?>
<!-- Uploaded to: SVG Repo, www.svgrepo.com, Generator: SVG Repo Mixer Tools -->
<!DOCTYPE svg PUBLIC "-//W3C//DTD SVG 1.1//EN" "http://www.w3.org/Graphics/SVG/1.1/DTD/svg11.dtd">
<svg fill="#d4a017" version="1.1" id="Capa_1" xmlns="http://www.w3.org/2000/svg" xmlns:xlink="http://www.w3.org/1999/xlink" 
	 width="800px" height="800px" viewBox="0 0 38.797 38.797"
	 xml:space="preserve">
<g>
	<g>
		<path d="M14.247,30.373c0.097,0.113,0.221,0.206,0.364,0.268c1.544,0.664,3.155,1,4.787,1c1.603,0,3.188-0.326,4.713-0.968
			c0.144-0.062,0.269-0.151,0.367-0.265c4.298-1.973,7.069-6.25,7.097-11.013c-0.027-4.755-2.799-9.03-7.097-11.003
			c-0.099-0.113-0.224-0.205-0.367-0.265c-3.074-1.296-6.432-1.285-9.5,0.033c-0.144,0.062-0.268,0.155-0.366,0.269
			C9.99,10.416,7.246,14.678,7.22,19.407C7.247,24.123,9.991,28.384,14.247,30.373z M24.702,11.236
			c1.4,0.943,2.539,2.258,3.27,3.779l-0.432,0.136c-0.166,0.052-0.314,0.146-0.434,0.273c-0.789,0.85-1.376,1.482-1.521,2.042
			c-0.065,0.074-0.154,0.169-0.25,0.265l-1.832,0.365c-0.256,0.051-0.48,0.199-0.629,0.413c-1.43,2.074-2.2,3.209-2.262,3.33
			c-0.072,0.108-0.241,0.326-0.441,0.565c-0.081-0.848-0.146-1.779-0.146-2.051c0-0.346,0-0.846-1.748-2.015l0.455-0.729
			c0.75-0.648,1.688-1.385,1.972-1.51c0.375-0.166,1.203-0.533,0.751-3.489l2.448-0.518c0.367-0.078,0.659-0.354,0.759-0.715
			L24.702,11.236z M10.227,21.126C10.076,20.454,10,19.77,10,19.08c0-2.149,0.73-4.213,2.07-5.887l0.412,0.408
			c0.039,0.039,0.082,0.074,0.126,0.106c0.035,0.024,0.069,0.053,0.104,0.078c0.21,0.154,0.425,0.324,0.592,0.47
			c-0.222,0.459-0.524,1.209-0.951,2.467c-1.324,0.832-1.791,1.435-1.641,2.112c-0.012,0.313-0.178,1.289-0.354,2.169L10.227,21.126
			z"/>
		<path d="M3.607,15.306H2.659c-0.694,0-1.346,0.271-1.836,0.761c-0.491,0.491-0.761,1.143-0.76,1.836v2.992
			c0,0.694,0.27,1.346,0.76,1.838c0.49,0.49,1.143,0.76,1.836,0.76h0.948c0.287,1.113,0.7,2.213,1.234,3.279
			c0.166,0.33,0.331,0.637,0.496,0.924L4.712,28.32c-0.521,0.521-0.794,1.244-0.752,1.908c-0.017,0.717,0.25,1.389,0.752,1.892
			l2.026,2.026c0.979,0.981,2.692,0.981,3.673,0l0.667-0.666c1.336,0.793,2.772,1.387,4.289,1.771v0.947
			c0,1.432,1.165,2.598,2.597,2.598h2.868c1.432,0,2.597-1.166,2.597-2.598v-0.938c1.508-0.383,2.946-0.979,4.29-1.78l0.665,0.664
			c0.979,0.982,2.692,0.982,3.673,0.002l2.027-2.026c0.502-0.5,0.77-1.173,0.75-1.812c0.043-0.742-0.229-1.466-0.75-1.988
			l-0.625-0.625c0.166-0.287,0.332-0.592,0.498-0.924c0.539-1.068,0.953-2.168,1.24-3.279h0.939c0.693,0,1.347-0.27,1.838-0.762
			c0.49-0.49,0.76-1.144,0.759-1.836v-2.991c0.001-0.693-0.269-1.346-0.759-1.837c-0.491-0.491-1.145-0.762-1.838-0.762h-0.939
			c-0.287-1.11-0.703-2.21-1.24-3.279c-0.168-0.331-0.332-0.637-0.498-0.925l0.627-0.626c0.52-0.52,0.793-1.245,0.75-1.907
			c0.018-0.718-0.25-1.389-0.75-1.891L32.059,4.65c-0.982-0.982-2.693-0.981-3.672,0l-0.666,0.666
			c-1.344-0.801-2.782-1.397-4.29-1.78V2.597C23.431,1.165,22.266,0,20.834,0h-2.871c-1.432,0-2.597,1.165-2.597,2.597v0.947
			c-1.517,0.385-2.954,0.979-4.289,1.772L10.41,4.649c-0.982-0.981-2.694-0.98-3.672,0L4.71,6.677
			c-0.501,0.502-0.768,1.174-0.75,1.81c-0.043,0.745,0.231,1.47,0.75,1.987L5.336,11.1c-0.166,0.289-0.331,0.596-0.497,0.927
			C4.307,13.094,3.894,14.193,3.607,15.306z M5.383,16.504c0.245-1.214,0.664-2.418,1.245-3.578c0.272-0.542,0.537-1.008,0.81-1.426
			c0.259-0.396,0.205-0.919-0.129-1.254L6.124,9.061C5.965,8.903,5.951,8.707,5.958,8.523C5.956,8.406,5.982,8.235,6.125,8.092
			l2.028-2.027c0.225-0.226,0.618-0.225,0.844,0l1.23,1.23c0.336,0.337,0.864,0.389,1.261,0.125
			c1.537-1.022,3.245-1.728,5.076-2.098c0.467-0.094,0.802-0.504,0.802-0.98V2.597C17.366,2.268,17.634,2,17.963,2h2.868
			c0.33,0,0.597,0.268,0.597,0.597v1.737c0,0.477,0.336,0.887,0.804,0.98c1.813,0.363,3.521,1.071,5.075,2.105
			c0.396,0.264,0.925,0.211,1.261-0.125l1.231-1.23c0.225-0.226,0.617-0.225,0.843,0l2.028,2.027
			c0.143,0.143,0.168,0.313,0.166,0.511c0.007,0.103-0.008,0.299-0.166,0.459l-1.184,1.183c-0.335,0.334-0.389,0.859-0.129,1.255
			c0.271,0.417,0.538,0.883,0.812,1.426c0.586,1.166,1.008,2.369,1.25,3.576c0.094,0.467,0.504,0.803,0.979,0.803h1.736
			c0.159,0,0.31,0.062,0.423,0.175c0.113,0.113,0.174,0.262,0.174,0.422v2.994c0,0.158-0.062,0.309-0.174,0.42
			c-0.113,0.113-0.264,0.176-0.423,0.176H34.4c-0.478,0-0.887,0.336-0.979,0.803c-0.242,1.206-0.664,2.408-1.25,3.574
			c-0.275,0.545-0.541,1.012-0.813,1.427c-0.26,0.396-0.206,0.92,0.129,1.255l1.183,1.182c0.16,0.162,0.175,0.357,0.168,0.541
			c0.002,0.096-0.018,0.28-0.168,0.43L30.64,32.73c-0.226,0.226-0.617,0.226-0.843-0.002l-1.23-1.229
			c-0.336-0.336-0.863-0.389-1.261-0.125c-1.554,1.033-3.261,1.742-5.075,2.105c-0.467,0.094-0.803,0.504-0.803,0.98v1.736
			c0,0.33-0.268,0.598-0.597,0.598h-2.868c-0.329,0-0.597-0.268-0.597-0.598v-1.746c0-0.475-0.336-0.885-0.803-0.979
			c-1.829-0.369-3.537-1.074-5.075-2.098c-0.169-0.113-0.362-0.167-0.553-0.167c-0.258,0-0.514,0.101-0.708,0.293L8.996,32.73
			c-0.226,0.228-0.617,0.228-0.844,0l-2.027-2.026c-0.143-0.144-0.169-0.313-0.168-0.513c-0.006-0.103,0.008-0.297,0.168-0.457
			l1.183-1.185c0.334-0.335,0.388-0.858,0.129-1.254c-0.272-0.416-0.537-0.882-0.81-1.424c-0.582-1.162-1-2.367-1.246-3.579
			c-0.094-0.467-0.504-0.803-0.98-0.803H2.657c-0.159,0-0.309-0.061-0.422-0.174c-0.113-0.113-0.175-0.264-0.175-0.424V17.9
			c0-0.159,0.062-0.309,0.175-0.422c0.113-0.113,0.263-0.175,0.422-0.175h1.744C4.879,17.306,5.289,16.971,5.383,16.504z"/>
	</g>
</g>
</svg>